<?xml version="1.0" encoding="UTF-8" standalone="no"?>
<!DOCTYPE svg PUBLIC "-//W3C//DTD SVG 1.1//EN" "http://www.w3.org/Graphics/SVG/1.1/DTD/svg11.dtd">
<svg width="100%" height="100%" viewBox="0 0 359 469" version="1.1" xmlns="http://www.w3.org/2000/svg" xmlns:xlink="http://www.w3.org/1999/xlink" xml:space="preserve" xmlns:serif="http://www.serif.com/" style="fill-rule:evenodd;clip-rule:evenodd;stroke-linejoin:round;stroke-miterlimit:2;">
    <g transform="matrix(1,0,0,1,0,-0.000146)">
        <path d="M146.291,440.168C155.488,438.206 164.685,435.631 172.686,444.153C170.725,443.9 168.747,443.797 166.77,443.847C164.905,444.192 163.077,444.716 161.313,445.41C160.27,439.524 155.948,440.015 150.951,441.578C147.303,442.712 143.532,443.326 139.823,444.276C138.658,444.582 136.972,445.073 136.604,445.931C133.845,452.522 127.928,451.541 122.686,451.848C117.444,452.155 112.539,451.848 108.645,451.848C107.389,454.178 106.898,456.538 105.58,457.335C101.84,459.512 97.671,460.892 93.777,462.792C90.839,464.638 87.765,466.258 84.58,467.636C81.385,468.209 78.139,468.455 74.893,468.372C69.743,468.77 64.899,468.372 60.944,462.24L93.409,453.933C86.696,449.181 77.223,455.251 72.594,448.261L90.19,439.432L88.351,432.351L102.821,435.018C96.69,419.26 96.965,403.687 97.732,388.083C97.732,386.642 98.038,385.201 98.13,383.73C98.345,379.806 99.817,375.146 91.233,375.79C93.716,373.767 94.544,373 95.433,372.357C97.701,370.701 98.989,369.107 95.739,367.022C94.895,366.445 94.346,365.525 94.237,364.509C94.574,358.377 91.171,357.09 84.703,358.009C88.903,351.633 90.466,346.084 81.453,343.386C89.332,329.99 104.016,331.921 114.991,326.587C111.926,322.51 110.516,321.988 107.113,324.104C100.246,328.273 92.95,325.299 85.868,325.483C85.132,325.483 83.814,323.828 83.661,322.785C83.074,319.405 82.808,315.977 82.864,312.546C84.335,280.296 79.185,249.977 57.388,224.44C54.825,220.626 52.019,216.981 48.989,213.527C45.998,211.61 42.731,210.162 39.301,209.235L35.163,207.426C52.637,205.587 61.374,216.623 71.429,227.997C66.585,208.561 52.361,198.751 39.301,188.052C35.776,190.259 37.401,198.107 30.104,197.954L31.79,181.798C27.744,181.655 23.711,181.266 19.712,180.633C15.573,179.744 15.543,176.648 17.075,173.398C20.846,165.335 36.695,161.135 43.961,166.224C47.341,168.628 48.745,173.002 47.394,176.923C46.72,179.989 45.494,182.748 44.329,186.12C63.635,195.735 81.447,208.095 97.211,222.816L93.409,224.195C96.076,226.678 98.529,229.254 101.288,231.43C102.708,232.225 104.253,232.775 105.856,233.055C109.197,234.097 109.994,235.783 106.745,238.726L117.996,243.785L118.854,242.65C112.416,235.109 106.132,227.322 99.51,220.057C96.816,217.612 95.815,213.79 96.965,210.339C98.682,204.453 99.387,198.291 100.92,190.136C107.051,197.647 117.658,197.892 120.325,206.966C122.747,215.244 123.391,224.011 126.089,233.116C126.975,231.3 127.515,229.336 127.683,227.322C127.039,221.743 125.66,216.255 124.955,210.676C124.955,209.235 126.058,207.61 126.671,206.139L128.235,206.445L128.235,205.495C108.768,191.454 89.363,177.291 69.681,163.557C64.584,160.401 59.194,157.742 53.587,155.617C50.981,154.483 49.264,152.889 50.736,150.375C52.033,148.052 53.999,146.172 56.377,144.98C58.516,144.431 60.787,144.751 62.692,145.869C69.314,149.425 75.445,147.31 81.668,144.949C87.891,142.588 94.912,139.952 101.472,137.254C102.821,136.703 103.832,135.292 105.181,133.238C97.487,134.894 96.352,129.958 94.973,125.084C94.114,122.018 94.973,120.639 98.038,120.026C100.338,119.535 102.576,118.677 104.844,118.002C110.669,116.224 111.466,112.208 107.051,107.579C106.204,106.428 105.58,105.128 105.212,103.747C104.721,102.429 104.354,101.08 103.618,98.811C100,106.046 95.034,105.219 88.29,102.214C93.256,100.16 97.057,98.505 100.951,96.972C109.167,93.753 110.148,91.914 108.921,82.533L96.076,82.533C95.126,82.533 94.268,81.307 93.348,80.632C94.268,79.958 95.157,78.732 96.076,78.732C107.94,78.732 112.508,71.895 112.784,60.92C113.066,58.682 113.559,56.475 114.256,54.329L115.758,54.513L115.758,72.325L126.579,69.872C125.568,74.992 125.2,79.498 118.701,79.866C114.685,80.111 115.635,83.851 115.819,86.304C116.097,88.382 117.203,90.262 118.885,91.515C121.827,92.765 124.918,93.631 128.081,94.09C125.886,96.966 123.377,99.587 120.601,101.908C117.305,103.743 115.886,107.799 117.321,111.289C117.873,112.883 121.337,113.312 123.023,114.753C124.679,115.963 125.87,117.706 126.395,119.688C126.463,122.771 126.216,125.852 125.66,128.885L120.816,130.602L121.092,132.411C126.073,132.031 131.028,131.355 135.929,130.387C145.665,128.157 155.249,125.311 164.624,121.865C186.083,113.281 207.542,115.151 228.634,122.263C240.498,126.279 251.963,131.46 263.612,136.059C265.942,136.978 268.242,137.99 270.571,139.124C273.913,130.357 270.418,124.44 262.294,121.742C250.819,118.312 239.66,113.901 228.94,108.56C213.2,99.884 194.978,96.783 177.254,99.762C168.333,101.111 159.504,103.103 150.614,104.759C146.015,105.617 141.417,106.353 136.205,107.273C136.635,105.862 136.604,105.188 136.91,104.973C158.768,88.787 181.914,75.268 209.443,71.466C230.678,68.377 252.342,72.71 270.755,83.729C271.884,84.317 272.837,85.195 273.514,86.273C279.308,98.536 284.581,110.798 284.827,124.655C284.827,133.361 283.6,135.783 275.936,141.638C283.662,147.402 291.939,152.674 299.112,159.143C318.119,176.28 327.806,198.689 330.32,223.521C332.773,248.046 332.834,272.571 333.754,297.096C333.754,301.326 332.681,304.177 326.979,304.668C322.644,305.53 318.79,307.993 316.188,311.565C300.31,333.151 280.146,351.228 256.96,364.662C251.626,367.727 247.426,372.908 242.613,376.924C240.575,378.723 238.403,380.363 236.114,381.829C235.141,382.667 233.898,383.128 232.614,383.128C230.577,383.128 228.71,381.968 227.806,380.143C225.629,377.262 221.675,375.606 219.069,372.387C219.752,374.555 220.603,376.666 221.613,378.702C223.759,382.289 226.488,385.539 228.511,389.187C233.845,398.874 231.056,408.194 226.61,417.298C221.729,417.747 216.823,417.859 211.926,417.636C209.688,417.39 207.88,414.57 205.58,413.589C201.871,412.21 198.989,410.309 194.483,415.061C189.976,419.812 181.668,422.05 174.71,424.257C170.356,425.698 165.513,425.33 159.106,425.913C164.017,428.871 170.029,429.403 175.384,427.354C182.618,424.472 189.601,420.996 196.261,416.961C199.817,414.877 202.147,414.57 205.458,417.36C207.926,419.133 210.657,420.509 213.551,421.437C217.536,423.062 221.644,424.503 226.151,426.158L234.305,415.336C243.839,419.26 253.036,423.092 262.294,426.771C264.073,427.329 265.97,427.393 267.782,426.955L253.894,419.628L254.293,418.096L277.408,420.15L275.446,411.934C279.589,413.512 283.816,414.863 288.107,415.98C296.292,417.574 298.714,415.153 298.039,406.783C298.039,405.741 298.039,404.699 297.855,403.718C320.081,405.159 344.024,423.184 343.84,438.513C334.244,441.578 324.434,440.168 314.9,438.513C307.206,437.102 301.902,438.666 297.15,445.196C291.726,452.329 283.177,456.42 274.219,456.171C254.232,456.385 234.213,456.171 214.256,455.19C210.301,455.19 206.561,451.02 202.607,449.058C200.596,448.389 198.671,447.484 196.874,446.361L215.574,441.67C216.835,441.505 218.085,441.259 219.314,440.934C220.296,440.363 221.211,439.685 222.043,438.911C220.97,438.237 219.927,437.133 218.824,437.041C216.494,436.796 214.041,437.348 211.742,437.041C207.542,436.551 203.434,435.447 199.234,434.987C195.035,434.527 190.927,433.332 187.738,434.742C180.044,438.114 172.41,437.501 164.777,436.244C158.344,434.624 151.511,436.074 146.291,440.168ZM279.952,307.457C284.091,309.297 285.593,306.967 287.095,304.208C297.242,285.538 298.836,265.397 296.782,244.796C294.054,217.206 283.907,191.914 271.982,167.236C271.062,165.305 268.211,163.987 267.935,162.116C267.199,157.181 263.674,155.985 259.934,154.299C258.084,153.651 256.399,152.604 254.998,151.234C247.767,143.208 238.311,137.509 227.837,134.863C205.151,128.149 181.852,127.843 158.584,129.038C149.571,129.529 140.773,133.851 131.883,136.457L132.312,138.113L167.536,130.142L167.873,131.767L149.48,138.205L149.847,140.167C160.577,138.726 170.479,144.305 181.577,142.435C192.674,140.565 203.986,140.964 215.298,140.351C207.751,142.374 200.081,143.91 192.337,144.949C191.203,145.133 189.271,145.777 189.271,146.237C189.271,150.191 185.96,149.302 183.845,150.161C182.68,150.62 181.454,150.927 180.228,151.326L180.565,153.165C182.619,152.95 184.673,152.797 186.696,152.552C197.855,151.264 208.952,149.731 220.142,148.75C223.159,148.878 226.142,149.435 229.002,150.406L228.726,151.509L197.058,153.839L197.058,155.188C203.588,155.188 210.148,154.912 216.647,155.188C223.146,155.464 229.308,156.66 235.654,157.426L235.47,159.265C231.301,159.48 227.162,159.756 222.993,159.848C218.824,159.94 214.777,159.848 210.731,159.848L210.731,161.657C226.672,163.404 242.674,164.906 256.715,173.919C251.732,173.315 246.809,172.29 242,170.853C233.031,168.106 223.465,167.946 214.409,170.394C212.942,171.131 211.606,172.104 210.455,173.275L211.436,174.318L232.221,170.792C231.362,178.119 224.556,175.789 221.46,179.437C223.575,179.744 225.262,180.142 226.948,180.204C241.971,180.741 256.478,185.855 268.517,194.857C273.944,198.812 273.974,198.781 273.637,205.893L256.592,200.191C258.862,202.373 261.383,204.277 264.103,205.863C274.468,212.472 282.211,222.492 285.991,234.189C291.387,249.211 294.33,264.048 288.689,279.744C285.102,288.573 282.773,297.954 279.952,307.457ZM128.541,435.416C131.305,434.875 133.978,433.946 136.481,432.657C140.16,429.776 145.494,428.059 144.85,421.529C144.999,418.27 145.357,415.024 145.923,411.811C145.956,410.061 145.487,408.338 144.575,406.845C138.443,397.464 132.312,388.144 125.844,378.457C107.143,381.523 107.634,380.94 105.243,399.641C105.152,399.992 105.09,400.351 105.059,400.713C104.651,409.394 106.589,418.026 110.669,425.698C115.942,411.167 115.666,397.372 115.788,383.454C124.817,399.239 129.236,417.245 128.541,435.416ZM274.25,337.899C257.543,339.738 241.847,354.269 237.463,372.326C265.544,358.653 285.256,336.826 305.703,315.643C303.743,315.721 301.821,316.212 300.063,317.083C294.207,320.149 288.475,323.215 282.589,326.035C277.592,328.518 272.288,330.48 274.25,337.96L274.25,337.899ZM92.674,322.571C94.605,321.713 96.628,321.467 97.088,320.486C98.897,316.685 107.511,315.52 101.87,308.684C101.411,308.132 101.87,306.63 102.208,305.618C102.804,303.765 103.114,301.832 103.127,299.885C100.736,284.925 93.041,272.05 86.481,258.775C85.818,257.688 85.059,256.662 84.213,255.71C84.05,256.662 83.958,257.625 83.937,258.591C86.021,277.69 88.106,296.789 90.344,315.857C90.868,318.155 91.65,320.387 92.674,322.51L92.674,322.571ZM178.511,320.793C176.488,327.844 177.928,332.687 183.722,336.305C187.421,338.926 190.963,341.761 194.329,344.797C201.564,350.713 203.68,350.1 206.592,341.087L212.723,341.087C211.168,337.995 209.32,335.059 207.205,332.32C203.404,328.273 199.173,324.625 194.943,320.946C193.954,320.21 192.74,319.842 191.509,319.904C187.033,319.996 182.711,320.394 178.419,320.732L178.511,320.793ZM207.696,77.996L207.174,76.678C191.478,79.989 175.568,82.809 163.122,94.673L206.929,89.952L206.929,89.002L199.725,87.653L199.725,86.457L206.469,84.464L199.418,82.87L199.204,81.368L207.696,77.996ZM109.626,144.183L108.063,143.876L103.679,150.804L100.614,145.531L91.417,153.379L111.251,171.773L113.52,170.578L109.626,144.183ZM157.144,343.785L156.163,345.103C160.822,354.668 165.462,364.222 170.08,373.767L171.981,374.196C168.057,363.65 178.419,363.711 182.895,358.255L157.144,343.785ZM213.336,330.388L214.869,330.388L220.632,311.228L196.322,313.65L195.648,315.459C198.713,319.475 201.564,323.521 204.691,327.445C205.427,328.075 206.447,328.263 207.358,327.936C207.963,327.154 208.199,326.146 208.002,325.177C207.696,322.785 207.144,320.394 206.684,318.034L208.646,317.574L213.336,330.388ZM227.193,350.989L229.002,353.135L257.021,330.603C241.54,329.928 226.794,338.206 226.365,346.145L234.213,344.919L234.489,346.115L227.193,350.989ZM169.866,346.513C173.851,349.211 177.591,351.449 180.994,354.055C186.114,357.979 189.241,357.366 192.889,350.253L174.495,337.041L169.866,346.513ZM143.379,331.798L143.379,332.626L130.626,333.331C137.554,336.581 142.888,339.095 148.161,341.516C148.798,341.705 149.484,341.628 150.062,341.302C150.736,338.451 152.331,335.171 151.595,332.718C149.081,324.073 142.091,322.326 134.305,328.273L143.379,331.798ZM247.61,325.146L230.657,315.949L227.591,334.68L247.61,325.146ZM244.238,350.345C233.416,352.307 225.844,358.592 219.56,366.685C224.679,372.816 224.587,372.816 229.186,366.961C231.975,363.405 235.133,360.125 238.168,356.783C239.977,354.545 242.061,352.461 244.084,350.315L244.238,350.345ZM183.6,216.225L184.887,217.849L214.532,197.31C210.792,195.532 203.342,196.206 200.645,198.843C197.027,202.399 193.226,205.802 189.608,209.419C187.493,211.626 185.592,213.956 183.6,216.225ZM95.862,340.382C96.092,342.83 96.543,345.251 97.211,347.617C97.789,348.895 98.918,349.843 100.276,350.192C102.976,350.457 105.702,350.207 108.308,349.456C109.85,348.678 110.908,347.183 111.129,345.471C111.129,343.785 109.78,340.781 108.676,340.627C104.416,340.237 100.134,340.155 95.862,340.382ZM201.288,400.039C189.976,397.679 182.282,390.26 174.74,380.48C176.283,391.755 186.019,400.25 197.399,400.25C198.702,400.25 200.004,400.138 201.288,399.916L201.288,400.039ZM167.107,213.741C158.83,201.816 147.027,195.072 135.071,188.511L134.243,189.707L167.107,213.741ZM124.464,167.757L125.997,167.451C124.893,161.176 123.8,154.892 122.717,148.597C122.502,147.279 122.41,145.93 122.196,144.581C121.981,143.232 121.674,141.853 121.398,140.473C120.479,141.546 118.946,142.466 118.701,143.539C116.923,152.46 121.429,159.848 124.464,167.604L124.464,167.757ZM194.146,365.643C187.585,362.301 180.687,366.133 177.101,374.656C184.611,375.085 189.67,371.467 194.146,365.49L194.146,365.643ZM118.026,359.205C116.034,354.361 111.895,353.411 105.58,355.312C101.962,356.415 101.656,358.377 103.281,361.872L118.026,359.205ZM106.745,368.647L106.101,370.548C107.588,372.045 109.221,373.391 110.975,374.564C112.082,374.715 113.201,374.379 114.041,373.644C114.348,369.873 117.107,370.272 119.528,370.057C120.636,369.696 121.673,369.147 122.594,368.433L121.95,366.379L106.745,368.647ZM226.304,184.71L255.182,189.339C246.556,184.025 236.159,182.358 226.304,184.71ZM317.046,431.86C323.177,434.037 329.002,438.574 337.218,436.367C330.749,430.542 323.852,431.247 317.077,431.86L317.046,431.86ZM141.785,354.76C140.834,351.081 135.102,349.579 128.725,351.94C132.423,354.835 137.254,355.875 141.815,354.76L141.785,354.76ZM287.831,314.662C279.523,314.662 273.576,318.156 273.33,323L287.831,314.662ZM253.097,199.364C246.966,193.447 243.655,192.834 238.444,197.187L253.097,199.364ZM132.067,440.934L132.067,439.218C127.775,439.463 123.483,439.677 119.191,440.076C118.639,440.076 118.18,441.21 117.689,441.823C118.302,442.314 119.007,443.295 119.528,443.203C123.667,442.559 127.867,441.701 132.067,440.934ZM201.013,302.982L203.71,302.368C202.576,298.598 201.411,294.796 200.277,290.995L198.223,291.578L201.013,302.982Z" style="fill:white;fill-rule:nonzero;"/>
    </g>
    <g transform="matrix(1,0,0,1,0,-0.000146)">
        <path d="M274.526,47.892C284.918,47.892 293.441,47.708 302.117,47.892C310.792,48.076 310.547,48.321 310.394,56.659C310.394,63.986 308.554,64.017 317.935,64.354C326.09,64.661 334.183,65.764 342.307,66.592C343.963,67.014 345.583,67.567 347.151,68.247C345.089,69.943 342.94,71.529 340.713,72.999C328.45,80.142 321.001,93.876 322.748,106.046L358.125,101.724L358.984,102.889C344.79,120.363 339.149,141.608 331.608,162.086C334.275,144.612 337.984,127.26 337.402,109.633C331.025,110.522 325.323,111.227 319.652,112.116C319.229,112.223 318.795,112.276 318.358,112.276C315.449,112.276 313.055,109.882 313.055,106.973C313.055,106.889 313.057,106.805 313.061,106.721C312.528,101.155 312.672,95.545 313.49,90.013C314.837,84.016 316.557,78.108 318.64,72.325C315.176,72.325 312.202,72.508 309.229,72.325C300.86,71.742 298.101,69.259 296.384,60.982C294.667,52.705 293.318,51.785 285.102,54.851C284.244,55.157 283.416,55.586 282.558,55.801C278.879,56.751 275.109,60.093 271.399,56.445C267.169,52.275 263.888,47.432 265.421,40.933C266.494,36.334 267.782,31.736 268.824,27.199C269.866,22.662 267.72,19.657 262.693,19.136C250.689,18.157 238.616,19.853 227.346,24.102C199.081,33.82 171.123,44.305 143.134,54.452C142.355,54.85 141.43,54.85 140.651,54.452C143.429,52.545 146.35,50.854 149.388,49.394C175.353,39.492 201.135,29.038 227.469,20.209C244.926,14.014 263.813,13.023 281.822,17.358C290.253,19.473 290.498,19.841 288.229,28.026C286.898,34.327 283.213,39.888 277.929,43.569C276.887,44.152 276.335,45.5 274.526,47.892Z" style="fill:white;fill-rule:nonzero;"/>
    </g>
    <g transform="matrix(1,0,0,1,0,-0.000146)">
        <path d="M31.76,135.384L0,142.987C3.771,132.962 1.778,122.478 10.209,115.396C11.19,114.569 11.281,112.76 12.14,111.687C14.807,108.284 17.719,105.065 20.417,101.693C23.115,98.321 25.445,94.612 28.388,91.485C31.821,87.867 35.776,84.74 39.485,81.368C41.018,79.958 42.551,78.517 43.961,77.076L43.501,75.084L31.974,75.084C30.626,75.084 28.602,75.237 28.05,74.501C23.636,68.37 19.988,61.779 21.919,53.87C22.348,52.061 24.74,50.804 26.211,49.179C28.11,51.038 29.805,53.093 31.269,55.31C31.944,56.506 31.024,58.376 31.085,60.123C31.085,62.269 31.085,66.255 31.79,66.255C34.458,66.806 37.493,69.872 40.344,66.101C40.773,65.519 43.072,66.101 44.359,66.5C49.97,68.523 55.518,70.7 61.343,72.907C61.201,78.987 57.785,84.539 52.422,87.407C46.781,90.688 40.681,93.109 34.764,95.807C28.847,98.505 23.115,100.988 19.773,106.997C19.129,108.131 17.535,108.744 16.37,109.572C13.908,111.29 12.437,114.111 12.437,117.113C12.437,120.658 14.487,123.9 17.689,125.421C20.551,126.569 23.336,127.9 26.027,129.406C28.141,131.193 30.063,133.197 31.76,135.384Z" style="fill:white;fill-rule:nonzero;"/>
    </g>
    <g transform="matrix(1,0,0,1,0,-0.000146)">
        <path d="M63.458,20.117C69.59,19.32 72.195,16.346 70.693,12.269C69.269,9.447 66.807,7.282 63.826,6.23C59.247,5.134 54.596,4.365 49.908,3.931C46.402,3.334 42.983,2.305 39.73,0.865C49.265,-1.096 59.19,0.301 67.811,4.82C70.877,6.567 73.943,8.805 77.008,10.706C79.363,11.837 80.867,14.228 80.867,16.84C80.867,18.119 80.507,19.371 79.829,20.454C78.081,23.949 71.981,24.838 68.517,22.692C67.26,22.048 66.095,21.558 63.458,20.117Z" style="fill:white;fill-rule:nonzero;"/>
    </g>
    <g transform="matrix(1,0,0,1,0,-0.000146)">
        <path d="M100.276,467.36L100.736,464.877C101.073,464.632 101.319,464.417 101.349,464.478C108.645,470.364 106.224,460.064 109.535,459.604C113.704,459.022 117.904,458.807 122.104,458.408C121.797,460.186 122.104,463.221 121.123,463.559C114.623,466.072 108.615,471.223 100.276,467.36Z" style="fill:white;fill-rule:nonzero;"/>
    </g>
    <g transform="matrix(1,0,0,1,0,-0.000146)">
        <path d="M58.4,32.594C55.334,37.591 51.564,35.261 47.793,34.035C50.797,28.639 54.629,31.184 58.4,32.594Z" style="fill:white;fill-rule:nonzero;"/>
    </g>
    <g transform="matrix(1,0,0,1,0,-0.000146)">
        <path d="M0.245,159.235L0.245,153.104L7.756,152.307L8.676,153.993L0.245,159.235Z" style="fill:white;fill-rule:nonzero;"/>
    </g>
    <g transform="matrix(1,0,0,1,0,-0.000146)">
        <path d="M71.184,455.527L64.102,457.642L63.826,450.468L71.184,455.527Z" style="fill:white;fill-rule:nonzero;"/>
    </g>
    <g transform="matrix(1,0,0,1,0,-0.000146)">
        <path d="M274.066,189.738L239.241,174.011C247.426,173.521 271.982,184.036 274.066,189.738Z" style="fill:white;fill-rule:nonzero;"/>
    </g>
</svg>
